<?xml version="1.0" encoding="UTF-8" standalone="no"?>
<!-- Created with Inkscape (http://www.inkscape.org/) -->

<svg
   version="1.1"
   id="svg2"
   xml:space="preserve"
   width="3999.998"
   height="3999.998"
   viewBox="0 0 3999.998 3999.998"
   sodipodi:docname="8f5d6cde91e92895584f6b2861724969.eps"
   xmlns:inkscape="http://www.inkscape.org/namespaces/inkscape"
   xmlns:sodipodi="http://sodipodi.sourceforge.net/DTD/sodipodi-0.dtd"
   xmlns="http://www.w3.org/2000/svg"
   xmlns:svg="http://www.w3.org/2000/svg"><defs
     id="defs6" /><sodipodi:namedview
     id="namedview4"
     pagecolor="#ffffff"
     bordercolor="#666666"
     borderopacity="1.0"
     inkscape:pageshadow="2"
     inkscape:pageopacity="0.0"
     inkscape:pagecheckerboard="0" /><g
     id="g8"
     inkscape:groupmode="layer"
     inkscape:label="ink_ext_XXXXXX"
     transform="matrix(1.3333333,0,0,-1.3333333,0,3999.9982)"><g
       id="g10"
       transform="scale(0.1)"><g
         id="g12"
         transform="scale(1.84049)"><path
           d="M 0,0 H 16300 V 16300 H 0 V 0"
           style="fill:#ffffff;fill-opacity:1;fill-rule:evenodd;stroke:none"
           id="path14" /></g><g
         id="g16"
         transform="scale(1.84049)"><path
           d="m 5451.43,16300 h 5397.17 c 2998.2,0 5451.4,-2453.1 5451.4,-5451.4 V 5451.43 C 16300,2453.15 13846.8,0 10848.6,0 H 5451.43 C 2453.13,0 0,2453.15 0,5451.43 V 10848.6 C 0,13846.9 2453.13,16300 5451.43,16300"
           style="fill:#fddc00;fill-opacity:1;fill-rule:evenodd;stroke:none"
           id="path18" /></g><g
         id="g20"
         transform="scale(1.50419)"><path
           d="m 6334.22,5780.91 c -4.26,-0.2 -5.43,-0.33 0,-0.27 z m 9931.28,7065.89 c 0.8,-5.6 1.6,-11.1 2.4,-16.8 -0.8,5.6 -1.6,11.2 -2.4,16.8 z m -1798.6,2053 7.8,-2.3 1511.2,1300.1 c 55.3,47.4 100.1,102.4 171.4,87.2 71.3,-15.1 120.9,-76.5 120.9,-149.4 v -1694.3 -1694.3 -6236 C 16144.1,5250.73 15070,4260.63 13775.9,4260.63 h -2024.2 c -61.9,0 -123.3,2.39 -184,6.84 -1705.8,15.69 -3469.27,53.59 -5127.51,-11.23 l -53.04,-1.13 c -698.51,-14.1 -1396.62,235.21 -1939.61,778.22 -482.9,482.92 -781.56,1149.92 -781.56,1886.66 0,18.82 1.39,11.31 4.15,90.42 1.99,58.04 3.16,88.62 3.47,93.2 28.1,421.36 392.45,740.2 813.82,712.08 421.37,-28.05 740.2,-392.44 712.12,-813.79 -2.76,-39.62 -3.01,-25.53 -3.48,-39.36 -1.21,-34.77 1.83,20.61 1.83,-42.55 0,-313.85 127.18,-597.99 332.76,-803.55 205.59,-205.63 489.7,-332.8 803.57,-332.8 67.5,0 14.97,-1.93 0,-2.73 v -0.27 l 23.01,0.4 c 7,0.14 0.31,0.2 23.11,1.13 52.48,2.07 103.93,-1.19 153.83,-9.37 l -1.21,-4.98 c 387.23,1585.83 1372.02,2937.25 2702.1,3802.5 v 2909.98 c 0,131.5 10.3,260.7 29.98,386.9 -8.18,-48.7 -14.96,-97.8 -20.21,-147.4 v 3388.6 c 0,72.9 49.66,134.3 120.99,149.4 71.34,15.2 116.08,-39.8 171.39,-87.3 L 11029,14890.4 h 3437.9 v 9.4 0"
           style="fill:#000000;fill-opacity:1;fill-rule:evenodd;stroke:none"
           id="path22" /></g><g
         id="g24"
         transform="scale(1.14832)"><path
           d="m 14600,13525 c 764.2,0 1387.5,623.3 1387.5,1387.5 0,764.2 -623.3,1387.5 -1387.5,1387.5 -764.3,0 -1387.6,-623.3 -1387.6,-1387.5 0,-764.2 623.3,-1387.5 1387.6,-1387.5"
           style="fill:#fddc00;fill-opacity:1;fill-rule:evenodd;stroke:none"
           id="path26" /></g><g
         id="g28"
         transform="scale(1.42952)"><path
           d="m 15185.4,10864.5 c 613.9,0 1114.6,500.7 1114.6,1114.5 0,614 -500.7,1114.6 -1114.6,1114.6 -613.9,0 -1114.5,-500.6 -1114.5,-1114.6 0,-613.8 500.6,-1114.5 1114.5,-1114.5"
           style="fill:#fddc00;fill-opacity:1;fill-rule:evenodd;stroke:none"
           id="path30" /></g><g
         id="g32"
         transform="scale(1.10443)"><path
           d="m 15180.1,14710.2 c 437.8,0 794.9,357.1 794.9,794.9 0,437.9 -357.1,794.9 -794.9,794.9 -437.7,0 -794.8,-357 -794.8,-794.9 0,-437.8 357.1,-794.9 794.8,-794.9"
           style="fill:#000000;fill-opacity:1;fill-rule:evenodd;stroke:none"
           id="path34" /></g><g
         id="g36"
         transform="scale(1.10443)"><path
           d="m 15180.1,14710.2 c 437.8,0 794.9,357.1 794.9,794.9 0,437.9 -357.1,794.9 -794.9,794.9 -437.7,0 -794.8,-357 -794.8,-794.9 0,-437.8 357.1,-794.9 794.8,-794.9 z"
           style="fill:none;stroke:#000000;stroke-width:5.13297;stroke-linecap:butt;stroke-linejoin:miter;stroke-miterlimit:22.9256;stroke-dasharray:none;stroke-opacity:1"
           id="path38" /></g><g
         id="g40"
         transform="scale(1.38563)"><path
           d="m 15666.4,11724.9 c 349,0 633.6,284.6 633.6,633.6 0,349 -284.6,633.6 -633.6,633.6 -349,0 -633.5,-284.6 -633.5,-633.6 0,-349 284.5,-633.6 633.5,-633.6"
           style="fill:#000000;fill-opacity:1;fill-rule:evenodd;stroke:none"
           id="path42" /></g><g
         id="g44"
         transform="scale(1.38563)"><path
           d="m 15666.4,11724.9 c 349,0 633.6,284.6 633.6,633.6 0,349 -284.6,633.6 -633.6,633.6 -349,0 -633.5,-284.6 -633.5,-633.6 0,-349 284.5,-633.6 633.5,-633.6 z"
           style="fill:none;stroke:#000000;stroke-width:4.09127;stroke-linecap:butt;stroke-linejoin:miter;stroke-miterlimit:22.9256;stroke-dasharray:none;stroke-opacity:1"
           id="path46" /></g><path
         d="M 10645.3,7451.6 H 15050 c 536.5,0 975.4,-439 975.4,-975.5 v 0 c 0,-536.5 -438.9,-975.5 -975.4,-975.5 h -4404.7 c -536.6,0 -975.51,439 -975.51,975.5 v 0 c 0,536.5 438.91,975.5 975.51,975.5"
         style="fill:#000000;fill-opacity:1;fill-rule:evenodd;stroke:none"
         id="path48" /><path
         d="M 10645.3,7451.6 H 15050 c 536.5,0 975.4,-439 975.4,-975.5 v 0 c 0,-536.5 -438.9,-975.5 -975.4,-975.5 h -4404.7 c -536.6,0 -975.51,439 -975.51,975.5 v 0 c 0,536.5 438.91,975.5 975.51,975.5 z"
         style="fill:none;stroke:#000000;stroke-width:5.669;stroke-linecap:butt;stroke-linejoin:miter;stroke-miterlimit:22.9256;stroke-dasharray:none;stroke-opacity:1"
         id="path50" /><g
         id="g52"
         transform="scale(1.50046)"><path
           d="m 12714.3,4966.21 h 2935.6 c 357.5,0 650.1,-292.58 650.1,-650.13 v 0 c 0,-357.56 -292.6,-650.14 -650.1,-650.14 h -2935.6 c -357.6,0 -650.1,292.58 -650.1,650.14 v 0 c 0,357.55 292.5,650.13 650.1,650.13"
           style="fill:#000000;fill-opacity:1;fill-rule:evenodd;stroke:none"
           id="path54" /></g><g
         id="g56"
         transform="scale(1.50046)"><path
           d="m 12714.3,4966.21 h 2935.6 c 357.5,0 650.1,-292.58 650.1,-650.13 v 0 c 0,-357.56 -292.6,-650.14 -650.1,-650.14 h -2935.6 c -357.6,0 -650.1,292.58 -650.1,650.14 v 0 c 0,357.55 292.5,650.13 650.1,650.13 z"
           style="fill:none;stroke:#000000;stroke-width:3.77817;stroke-linecap:butt;stroke-linejoin:miter;stroke-miterlimit:22.9256;stroke-dasharray:none;stroke-opacity:1"
           id="path58" /></g><g
         id="g60"
         transform="scale(1.44516)"><path
           d="m 10132.5,14933.7 c 179.9,244.8 404.5,389.6 674,434.3 36.1,6 63.9,30 75,64.8 11.3,34.8 2.6,70.5 -23.3,96.4 l -735,735.1 c -27.9,27.8 -67.5,35.7 -103.8,20.6 -36.37,-15 -58.79,-48.6 -58.79,-87.9 v -1207 c 0,-41.8 25.74,-77.4 65.49,-90.4 39.8,-13.1 81.6,0.3 106.4,34.1"
           style="fill:#fddc00;fill-opacity:1;fill-rule:evenodd;stroke:none"
           id="path62" /></g><g
         id="g64"
         transform="scale(1.44516)"><path
           d="m 10132.5,14933.7 c 179.9,244.8 404.5,389.6 674,434.3 36.1,6 63.9,30 75,64.8 11.3,34.8 2.6,70.5 -23.3,96.4 l -735,735.1 c -27.9,27.8 -67.5,35.7 -103.8,20.6 -36.37,-15 -58.79,-48.6 -58.79,-87.9 v -1207 c 0,-41.8 25.74,-77.4 65.49,-90.4 39.8,-13.1 81.6,0.3 106.4,34.1 z"
           style="fill:none;stroke:#d9c515;stroke-width:3.92274;stroke-linecap:butt;stroke-linejoin:miter;stroke-miterlimit:22.9256;stroke-dasharray:none;stroke-opacity:1"
           id="path66" /></g><g
         id="g68"
         transform="scale(1.47017)"><path
           d="m 16131,14679.7 c -176.7,240.7 -397.6,383 -662.5,426.9 -35.4,5.9 -62.8,29.5 -73.7,63.7 -11,34.3 -2.5,69.3 22.9,94.8 l 722.6,722.6 c 27.3,27.3 66.2,35.1 101.9,20.3 35.8,-14.8 57.8,-47.8 57.8,-86.5 v -1186.4 c 0,-41.2 -25.3,-76.1 -64.4,-89 -39.1,-12.8 -80.2,0.4 -104.6,33.6"
           style="fill:#fddc00;fill-opacity:1;fill-rule:evenodd;stroke:none"
           id="path70" /></g><g
         id="g72"
         transform="scale(1.47017)"><path
           d="m 16131,14679.7 c -176.7,240.7 -397.6,383 -662.5,426.9 -35.4,5.9 -62.8,29.5 -73.7,63.7 -11,34.3 -2.5,69.3 22.9,94.8 l 722.6,722.6 c 27.3,27.3 66.2,35.1 101.9,20.3 35.8,-14.8 57.8,-47.8 57.8,-86.5 v -1186.4 c 0,-41.2 -25.3,-76.1 -64.4,-89 -39.1,-12.8 -80.2,0.4 -104.6,33.6 z"
           style="fill:none;stroke:#d9c515;stroke-width:3.85603;stroke-linecap:butt;stroke-linejoin:miter;stroke-miterlimit:22.9256;stroke-dasharray:none;stroke-opacity:1"
           id="path74" /></g></g></g></svg>
